<mxfile host="app.diagrams.net" modified="2023-12-25T05:16:55.485Z" agent="Mozilla/5.0 (Windows NT 10.0; Win64; x64) AppleWebKit/537.36 (KHTML, like Gecko) Chrome/120.0.0.0 Safari/537.36" etag="JEuXYvFjAwsX-6f_3EfD" version="22.1.11" type="github">
  <diagram name="第 1 页" id="_900NQHbycNjB8TItDSQ">
    <mxGraphModel dx="548" dy="569" grid="1" gridSize="10" guides="1" tooltips="1" connect="1" arrows="1" fold="1" page="1" pageScale="1" pageWidth="827" pageHeight="1169" math="0" shadow="0">
      <root>
        <mxCell id="0" />
        <mxCell id="1" parent="0" />
        <mxCell id="h_XLtCZukbtgmV6gQLRa-1" value="&lt;font style=&quot;font-size: 21px;&quot;&gt;用戶登錄&lt;/font&gt;" style="rounded=0;whiteSpace=wrap;html=1;" vertex="1" parent="1">
          <mxGeometry x="150" y="50" width="150" height="60" as="geometry" />
        </mxCell>
        <mxCell id="h_XLtCZukbtgmV6gQLRa-4" value="" style="endArrow=block;html=1;rounded=0;exitX=0.5;exitY=1;exitDx=0;exitDy=0;endFill=1;" edge="1" parent="1" source="h_XLtCZukbtgmV6gQLRa-1">
          <mxGeometry width="50" height="50" relative="1" as="geometry">
            <mxPoint x="140" y="320" as="sourcePoint" />
            <mxPoint x="225" y="160" as="targetPoint" />
          </mxGeometry>
        </mxCell>
        <mxCell id="h_XLtCZukbtgmV6gQLRa-5" value="&lt;font style=&quot;font-size: 21px;&quot;&gt;驗證&lt;/font&gt;" style="rhombus;whiteSpace=wrap;html=1;" vertex="1" parent="1">
          <mxGeometry x="130" y="160" width="190" height="80" as="geometry" />
        </mxCell>
        <mxCell id="h_XLtCZukbtgmV6gQLRa-6" value="" style="endArrow=block;html=1;rounded=0;entryX=1;entryY=0.5;entryDx=0;entryDy=0;endFill=1;" edge="1" parent="1" target="h_XLtCZukbtgmV6gQLRa-1">
          <mxGeometry width="50" height="50" relative="1" as="geometry">
            <mxPoint x="320" y="200" as="sourcePoint" />
            <mxPoint x="390" y="210" as="targetPoint" />
            <Array as="points">
              <mxPoint x="360" y="200" />
              <mxPoint x="360" y="80" />
            </Array>
          </mxGeometry>
        </mxCell>
        <mxCell id="h_XLtCZukbtgmV6gQLRa-7" value="" style="endArrow=block;html=1;rounded=0;exitX=0.5;exitY=1;exitDx=0;exitDy=0;endFill=1;" edge="1" parent="1" source="h_XLtCZukbtgmV6gQLRa-5">
          <mxGeometry width="50" height="50" relative="1" as="geometry">
            <mxPoint x="140" y="310" as="sourcePoint" />
            <mxPoint x="225" y="280" as="targetPoint" />
          </mxGeometry>
        </mxCell>
        <mxCell id="h_XLtCZukbtgmV6gQLRa-9" value="" style="endArrow=block;startArrow=block;html=1;rounded=0;endFill=1;startFill=1;exitX=0.5;exitY=0;exitDx=0;exitDy=0;entryX=0.5;entryY=0;entryDx=0;entryDy=0;" edge="1" parent="1" source="h_XLtCZukbtgmV6gQLRa-12" target="h_XLtCZukbtgmV6gQLRa-16">
          <mxGeometry width="50" height="50" relative="1" as="geometry">
            <mxPoint x="105" y="320" as="sourcePoint" />
            <mxPoint x="345" y="320" as="targetPoint" />
            <Array as="points">
              <mxPoint x="100" y="280" />
              <mxPoint x="215" y="280" />
              <mxPoint x="340" y="280" />
            </Array>
          </mxGeometry>
        </mxCell>
        <mxCell id="h_XLtCZukbtgmV6gQLRa-10" value="" style="endArrow=block;html=1;rounded=0;endFill=1;" edge="1" parent="1">
          <mxGeometry width="50" height="50" relative="1" as="geometry">
            <mxPoint x="180" y="280" as="sourcePoint" />
            <mxPoint x="180" y="320" as="targetPoint" />
          </mxGeometry>
        </mxCell>
        <mxCell id="h_XLtCZukbtgmV6gQLRa-11" value="" style="endArrow=block;html=1;rounded=0;endFill=1;entryX=0.5;entryY=0;entryDx=0;entryDy=0;" edge="1" parent="1" target="h_XLtCZukbtgmV6gQLRa-15">
          <mxGeometry width="50" height="50" relative="1" as="geometry">
            <mxPoint x="260" y="280" as="sourcePoint" />
            <mxPoint x="270" y="320" as="targetPoint" />
          </mxGeometry>
        </mxCell>
        <mxCell id="h_XLtCZukbtgmV6gQLRa-12" value="&lt;font style=&quot;font-size: 21px;&quot;&gt;日記查看&lt;/font&gt;" style="rounded=0;whiteSpace=wrap;html=1;fontFamily=Verdana;" vertex="1" parent="1">
          <mxGeometry x="80" y="320" width="40" height="270" as="geometry" />
        </mxCell>
        <mxCell id="h_XLtCZukbtgmV6gQLRa-14" value="&lt;font style=&quot;font-size: 21px;&quot;&gt;日記維護&lt;/font&gt;" style="rounded=0;whiteSpace=wrap;html=1;fontFamily=Verdana;" vertex="1" parent="1">
          <mxGeometry x="160" y="320" width="40" height="270" as="geometry" />
        </mxCell>
        <mxCell id="h_XLtCZukbtgmV6gQLRa-15" value="&lt;font style=&quot;font-size: 21px;&quot;&gt;日記類別維護&lt;/font&gt;" style="rounded=0;whiteSpace=wrap;html=1;fontFamily=Verdana;" vertex="1" parent="1">
          <mxGeometry x="240" y="320" width="40" height="270" as="geometry" />
        </mxCell>
        <mxCell id="h_XLtCZukbtgmV6gQLRa-16" value="&lt;font style=&quot;font-size: 21px;&quot;&gt;個人信息維護&lt;/font&gt;" style="rounded=0;whiteSpace=wrap;html=1;fontFamily=Verdana;" vertex="1" parent="1">
          <mxGeometry x="320" y="320" width="40" height="270" as="geometry" />
        </mxCell>
      </root>
    </mxGraphModel>
  </diagram>
</mxfile>
